<?xml version="1.0" encoding="UTF-8"?>
<svg id="uuid-aa31fddc-c6d2-41ba-ac02-d81e1a609c7a" xmlns="http://www.w3.org/2000/svg" viewBox="0 0 100 100">
  <defs>
    <style>
      .cls-1 {
        fill: #ffde17;
      }

      .cls-2 {
        fill: #2c9cd8;
      }
    </style>
  </defs>
  <path class="cls-2" d="M84.75,17.37c-7.69-7.93-17.08-12.27-28.16-13.02l-10.89,22.5h7.35c6.36,0,11.55,2.11,15.56,6.34,4.01,4.23,6.01,9.83,6.01,16.8s-2.01,12.57-6.01,16.8c-4.01,4.23-9.19,6.34-15.56,6.34h-13.2v-9.77L15.81,95.75h6.76l7.49-10.09h6.72l-7.49,10.09h6.77l7.49-10.09h6.71l-7.49,10.09h6.75l7.49-10.09h6.77l-.55,.74-6.86,9.24c11.18-.71,20.64-5.05,28.38-13.03,8.5-8.76,12.75-19.63,12.75-32.62s-4.25-23.86-12.75-32.62h0Z"/>
  <path class="cls-1" d="M20.55,4.24h29.65L30.86,44.2h16.76L8.95,95.77l11.6-41.25H2.5S20.55,3.76,20.55,4.24Z"/>
</svg>