<svg width="87" height="87" viewBox="0 0 87 87" fill="none" xmlns="http://www.w3.org/2000/svg">
<path d="M27.1875 72.5H68.875L79.75 83.375V45.3125C79.75 41.325 76.4875 38.0625 72.5 38.0625H27.1875C23.2 38.0625 19.9375 41.325 19.9375 45.3125V65.25C19.9375 69.2375 23.2 72.5 27.1875 72.5Z" fill="#F7CE46"/>
<path d="M52.2 59.4501H45.675L44.4063 63.2564H40.4188L47.125 45.1313H50.5688L57.275 63.2564H53.2875L52.2 59.4501ZM46.5813 56.5501H51.1125L48.9375 49.6626L46.5813 56.5501Z" fill="white"/>
<path d="M59.8125 45.3125H18.125L7.25 56.1875V14.5C7.25 10.5125 10.5125 7.25 14.5 7.25H59.8125C63.8 7.25 67.0625 10.5125 67.0625 14.5V38.0625C67.0625 42.05 63.8 45.3125 59.8125 45.3125Z" fill="#00AEEF"/>
<path d="M46.0375 25.7376C46.0375 27.5501 45.675 29.0001 45.1313 30.2688C44.5875 31.5376 43.8625 32.6251 42.775 33.3501L45.8563 35.7064L43.5 37.8813L39.5125 34.8001C39.15 34.8001 38.6063 34.9813 38.0625 34.9813C36.975 34.9813 35.8875 34.8001 34.8 34.4376C33.8938 34.0751 32.9875 33.3501 32.2625 32.6251C31.5375 31.9001 30.9938 30.8126 30.6313 29.7251C30.2688 28.6376 30.0875 27.3688 30.0875 25.9188V25.1938C30.0875 23.7438 30.2688 22.4751 30.6313 21.3876C30.9938 20.3001 31.5375 19.2126 32.2625 18.4876C32.9875 17.7626 33.7125 17.0376 34.8 16.6751C35.7063 16.3126 36.7938 16.1313 38.0625 16.1313C39.15 16.1313 40.2375 16.3126 41.325 16.6751C42.2313 17.0376 43.1375 17.7626 43.8625 18.4876C44.5875 19.2126 45.1313 20.3001 45.4938 21.3876C45.8563 22.4751 46.0375 23.7438 46.0375 25.1938V25.7376ZM42.05 24.8313C42.05 22.8376 41.6875 21.3876 40.9625 20.4813C40.2375 19.3938 39.3313 19.0313 38.0625 19.0313C36.7938 19.0313 35.7063 19.5751 35.1625 20.4813C34.4375 21.5688 34.075 23.0188 34.075 24.8313V25.7376C34.075 26.6438 34.2563 27.5501 34.4375 28.2751C34.6188 29.0001 34.8 29.7251 35.1625 30.0876C35.525 30.6313 35.8875 30.9938 36.4313 31.1751C36.975 31.3563 37.5188 31.5376 38.0625 31.5376C39.3313 31.5376 40.4188 30.9938 40.9625 30.0876C41.6875 29.0001 42.05 27.5501 42.05 25.5563V24.8313Z" fill="white"/>
</svg>
