<svg width="141" height="36" viewBox="0 0 141 36" fill="none" xmlns="http://www.w3.org/2000/svg">
<line x1="2.8999" y1="18.0312" x2="138.9" y2="18.0312" stroke="#D0D0D0"/>
<circle cx="4.3999" cy="18" r="3.5" fill="#D0D0D0"/>
<circle cx="137.4" cy="18" r="3.5" fill="#D0D0D0"/>
<circle cx="70.8999" cy="18" r="18" fill="#00AEEF"/>
<path d="M65.6499 26.25H79.1499" stroke="white" stroke-width="1.5" stroke-linecap="round" stroke-linejoin="round"/>
<path d="M61.4124 13.5H63.0249L64.8999 15.75H67.8999L66.728 12.2344C66.691 12.1217 66.6812 12.0019 66.6994 11.8847C66.7176 11.7675 66.7634 11.6563 66.8329 11.5602C66.9025 11.4642 66.9938 11.386 67.0994 11.332C67.205 11.2781 67.3219 11.25 67.4405 11.25H69.0249L73.1499 15.75H78.3999C79.1956 15.75 79.9586 16.0661 80.5212 16.6287C81.0838 17.1913 81.3999 17.9544 81.3999 18.75V21H64.8812C64.2369 20.999 63.61 20.7906 63.0933 20.4057C62.5767 20.0207 62.1977 19.4796 62.0124 18.8625L60.6905 14.4656C60.6568 14.3533 60.6499 14.2347 60.6704 14.1193C60.6908 14.0039 60.738 13.8948 60.8082 13.8009C60.8784 13.707 60.9696 13.6309 61.0745 13.5786C61.1795 13.5264 61.2952 13.4994 61.4124 13.5V13.5Z" stroke="white" stroke-width="1.5" stroke-linecap="round" stroke-linejoin="round"/>
</svg>
