<svg width="361" height="650" viewBox="0 0 361 650" fill="none" xmlns="http://www.w3.org/2000/svg">
<path d="M333.05 369L360.8 386.5V498L333.05 488V369Z" fill="#E3E4E5"/>
<path d="M28.55 369L0.800049 386.5V498L28.55 488V369Z" fill="#E3E4E5"/>
<path d="M17.1107 650H344.489C344.489 650 344.63 625.79 344.8 589.281C343.798 487.979 341.711 291.983 340.236 255.677C339.612 240.564 337.296 210.124 330.232 175.351C312.432 106.97 275.636 17.441 203.389 2.23187C196.221 0.85786 188.697 0.0909463 180.8 0C172.903 0.0909463 165.379 0.85786 158.211 2.23187C85.9643 17.441 49.1678 106.969 31.3681 175.351C24.3041 210.124 21.9884 240.564 21.3642 255.677C19.8888 291.983 17.8021 487.98 16.8 589.281C16.9698 625.791 17.1107 650 17.1107 650Z" fill="white"/>
<path d="M82.091 142H65.8L82.091 86.8871L100.826 106.218L82.091 142Z" fill="#E3E4E5"/>
<path d="M177.8 72.4919L104.898 102.516L84.1273 82.3629L177.8 40V72.4919Z" fill="#E3E4E5"/>
<path d="M279.509 142H295.8L279.509 86.8871L260.775 106.218L279.509 142Z" fill="#E3E4E5"/>
<path d="M183.8 72.4919L256.702 102.516L277.473 82.3629L183.8 40V72.4919Z" fill="#E3E4E5"/>
</svg>
