<svg width="32" height="20" viewBox="0 0 32 20" fill="none" xmlns="http://www.w3.org/2000/svg">
<g clip-path="url(#clip0_72_2569)">
<path d="M2.38357 6.10352e-05H30.3836C31.2672 6.10352e-05 31.9836 0.716421 31.9836 1.60006V18.4001C31.9836 19.2837 31.2672 20.0001 30.3836 20.0001H2.38357C1.49993 20.0001 0.783569 19.2837 0.783569 18.4001V1.60006C0.783569 0.716421 1.49993 6.10352e-05 2.38357 6.10352e-05Z" fill="#2557D6"/>
<path d="M0.793657 9.42761H2.2913L2.62898 8.64721H3.38498L3.72178 9.42761H6.6685V8.83101L6.93154 9.43021H8.46126L8.7243 8.82213V9.42765H16.0475L16.0441 8.14661H16.1858C16.2849 8.14993 16.3139 8.15869 16.3139 8.31565V9.42765H20.1015V9.12945C20.4071 9.28625 20.8822 9.42765 21.5074 9.42765H23.1009L23.4419 8.64725H24.1979L24.5313 9.42765H27.6019V8.68637L28.067 9.42765H30.5276V4.52725H28.0924V5.10597L27.7515 4.52725H25.2527V5.10597L24.9395 4.52725H21.5643C20.9994 4.52725 20.5028 4.60281 20.1016 4.81337V4.52725H17.7724V4.81337C17.5171 4.59633 17.1693 4.52725 16.7824 4.52725H8.27282L7.70186 5.79289L7.1155 4.52725H4.4353V5.10597L4.14082 4.52725H1.85502L0.793457 6.85709V9.42753H0.793577L0.793657 9.42761ZM10.2473 8.72081H9.3487L9.34538 5.96905L8.07438 8.72077H7.30478L6.03046 5.96661V8.72077H4.24766L3.91086 7.93709H2.08578L1.74558 8.72077H0.793537L2.36318 5.20729H3.66554L5.1563 8.53385V5.20729H6.58694L7.73406 7.59077L8.78782 5.20729H10.2472L10.2473 8.72081ZM3.61126 7.20789L3.01134 5.80721L2.41474 7.20789H3.61126ZM13.8233 8.72073H10.8951V5.20725H13.8233V5.93889H11.7717V6.57221H13.7741V7.29241H11.7717V7.99409H13.8232L13.8233 8.72073ZM17.9497 6.15353C17.9497 6.71369 17.5595 7.00313 17.3321 7.09001C17.5239 7.15993 17.6877 7.28353 17.7657 7.38589C17.8895 7.56065 17.9108 7.71673 17.9108 8.03053V8.72073H17.0267L17.0233 8.27765C17.0233 8.06625 17.0445 7.76221 16.885 7.59317C16.7569 7.46957 16.5617 7.44277 16.2461 7.44277H15.3052V8.72077H14.4286V5.20725H16.4447C16.8926 5.20725 17.2227 5.21857 17.5061 5.37553C17.7834 5.53249 17.9497 5.76161 17.9497 6.15353ZM16.8417 6.67521C16.7212 6.74529 16.5788 6.74761 16.4081 6.74761H15.3433V5.96721H16.4225C16.5753 5.96721 16.7347 5.97377 16.8383 6.03057C16.9519 6.08177 17.0223 6.19069 17.0223 6.34117C17.0223 6.49477 16.9553 6.61833 16.8417 6.67521ZM19.3555 8.72073H18.4611V5.20725H19.3555V8.72073ZM29.7379 8.72073H28.4957L26.8343 6.08365V8.72073H25.0492L24.7081 7.93705H22.8873L22.5565 8.72073H21.5305C21.1046 8.72073 20.565 8.63045 20.2596 8.33213C19.9516 8.03381 19.7913 7.62973 19.7913 6.99081C19.7913 6.46973 19.8871 5.99337 20.2638 5.61693C20.5472 5.33653 20.991 5.20725 21.595 5.20725H22.4436V5.96009H21.6127C21.2929 5.96009 21.1122 6.00569 20.9383 6.16821C20.7889 6.31617 20.6863 6.59581 20.6863 6.96409C20.6863 7.34049 20.7644 7.61193 20.9273 7.78921C21.0622 7.92825 21.3075 7.97041 21.5381 7.97041H21.9318L23.1672 5.20737H24.4806L25.9647 8.53061V5.20741H27.2993L28.8401 7.65437V5.20741H29.7379V8.72073ZM24.4099 7.20793L23.8033 5.80725L23.2 7.20793H24.4099ZM31.9715 14.3311C31.7586 14.6294 31.3437 14.7807 30.782 14.7807H29.0893V14.0271H30.7751C30.9424 14.0271 31.0594 14.006 31.1299 13.9401C31.1965 13.8811 31.2341 13.7979 31.2335 13.7109C31.2335 13.6085 31.1909 13.5272 31.1264 13.4785C31.0628 13.4248 30.9703 13.4005 30.8175 13.4005C29.9946 13.3737 28.9678 13.4248 28.9678 12.3127C28.9678 11.803 29.3055 11.2665 30.2253 11.2665H31.9713V10.5673H30.349C29.8595 10.5673 29.5039 10.6797 29.252 10.8543V10.5673H26.8526C26.4688 10.5673 26.0185 10.6584 25.8055 10.8543V10.5673H21.5207V10.8543C21.1797 10.6186 20.6043 10.5673 20.3387 10.5673H17.5125V10.8543C17.2427 10.6039 16.6428 10.5673 16.277 10.5673H13.1139L12.3902 11.3178L11.7122 10.5673H6.98702V15.4709H11.623L12.3689 14.7084L13.0715 15.4709L15.9291 15.4733V14.3198H16.21C16.5891 14.3254 17.0364 14.3107 17.4309 14.1473V15.4707H19.788V14.1926H19.9017C20.0468 14.1926 20.0611 14.1984 20.0611 14.3372V15.4705H27.2215C27.6761 15.4705 28.1513 15.3591 28.4145 15.1567V15.4705H30.6857C31.1583 15.4705 31.6198 15.4071 31.971 15.2446L31.9711 14.331L31.9715 14.3311ZM17.7739 12.4449C17.7739 13.4212 17.0137 13.6227 16.2475 13.6227H15.1538V14.8015H13.4501L12.3708 13.6381L11.2491 14.8015H7.77702V11.2871H11.3024L12.3809 12.4391L13.4959 11.2871H16.2967C16.9923 11.2871 17.7739 11.4717 17.7739 12.4449ZM10.8051 14.0623H8.64994V13.3631H10.5743V12.6461H8.64994V12.0071H10.8475L11.8063 13.0313L10.8051 14.0623ZM14.2775 14.4647L12.9317 13.0331L14.2775 11.6471V14.4647ZM16.2677 12.9021H15.135V12.0071H16.2779C16.5944 12.0071 16.8141 12.1307 16.8141 12.438C16.8141 12.7419 16.6045 12.9021 16.2677 12.9021ZM22.2021 11.2871H25.1277V12.0139H23.0751V12.6529H25.0775V13.3699H23.0751V14.0691L25.1276 14.0723V14.8015H22.2021L22.2021 11.2871ZM21.0774 13.1683C21.2725 13.2373 21.432 13.3609 21.5067 13.4633C21.6305 13.6349 21.6484 13.7951 21.652 14.1048V14.8015H20.7719V14.3618C20.7719 14.1504 20.7931 13.8373 20.6302 13.6739C20.5022 13.548 20.3069 13.5179 19.9872 13.5179H19.0504V14.8015H18.1696V11.2872H20.1933C20.6371 11.2872 20.9603 11.306 21.248 11.453C21.5246 11.6132 21.6986 11.8325 21.6986 12.2335C21.6986 12.7943 21.3081 13.0806 21.0774 13.1683ZM20.582 12.724C20.4647 12.7907 20.3197 12.7965 20.1493 12.7965H19.0844V12.0072H20.1637C20.3197 12.0072 20.4759 12.0104 20.582 12.0707C20.6956 12.1276 20.7635 12.2365 20.7635 12.3868C20.7635 12.5371 20.6955 12.6582 20.582 12.724ZM28.4948 12.9479C28.6656 13.1171 28.7569 13.3307 28.7569 13.6924C28.7569 14.4484 28.2641 14.8013 27.3799 14.8013H25.6727V14.0477H27.3731C27.5394 14.0477 27.6573 14.0267 27.7311 13.9607C27.7915 13.9064 27.8347 13.8274 27.8347 13.7316C27.8347 13.6291 27.7879 13.5479 27.7277 13.4991C27.6607 13.4455 27.5683 13.4212 27.4156 13.4212C26.5959 13.3944 25.5693 13.4455 25.5693 12.3335C25.5693 11.8237 25.9035 11.2872 26.8225 11.2872H28.5798V12.0352H26.9719C26.8125 12.0352 26.7089 12.041 26.6207 12.0987C26.5247 12.1555 26.4891 12.24 26.4891 12.3514C26.4891 12.484 26.5706 12.5742 26.6809 12.6133C26.7733 12.6441 26.8727 12.6531 27.0219 12.6531L27.4938 12.6653C27.9696 12.6763 28.2963 12.7552 28.4948 12.9479ZM31.973 12.0071H30.3755C30.216 12.0071 30.1099 12.0129 30.0208 12.0706C29.9283 12.1275 29.8927 12.2119 29.8927 12.3235C29.8927 12.456 29.9707 12.5462 30.0843 12.5852C30.1768 12.6161 30.2761 12.6251 30.4221 12.6251L30.8972 12.6372C31.3765 12.6486 31.6965 12.7275 31.8916 12.9201C31.9273 12.9469 31.9485 12.977 31.9729 13.0071V12.0071H31.973Z" fill="white"/>
</g>
<defs>
<clipPath id="clip0_72_2569">
<rect width="31.2" height="20" fill="white" transform="translate(0.783569)"/>
</clipPath>
</defs>
</svg>
