<svg width="27" height="20" viewBox="0 0 27 20" fill="none" xmlns="http://www.w3.org/2000/svg">
<g clip-path="url(#clip0_72_2568)">
<path d="M13.3459 8.55756C13.3318 9.67194 14.339 10.2938 15.0978 10.6636C15.8774 11.043 16.1393 11.2862 16.1363 11.6254C16.1304 12.1447 15.5144 12.3738 14.9379 12.3827C13.9321 12.3984 13.3474 12.1112 12.8825 11.894L12.5202 13.5894C12.9866 13.8044 13.8503 13.9918 14.746 14C16.8482 14 18.2237 12.9622 18.2312 11.3532C18.2394 9.31114 15.4065 9.19807 15.4259 8.28529C15.4326 8.00856 15.6967 7.71322 16.2754 7.63809C16.5618 7.60015 17.3526 7.57114 18.249 7.98401L18.6009 6.34369C18.1188 6.16812 17.4992 6 16.7277 6C14.7489 6 13.3571 7.05189 13.3459 8.55756ZM21.982 6.14134C21.5981 6.14134 21.2745 6.36526 21.1302 6.70895L18.127 13.8795H20.2278L20.6459 12.7242L23.2131 12.7242L23.4556 13.8795H25.3072L23.6915 6.14134H21.982ZM22.2758 8.23173L22.8821 11.1374H21.2217L22.2758 8.23173ZM10.7988 6.14134L9.14283 13.8795H11.1447L12.7999 6.14134L10.7988 6.14134ZM7.83727 6.14134L5.75358 11.4082L4.91073 6.92989C4.81179 6.42998 4.42124 6.14134 3.98754 6.14134H0.58118L0.533569 6.366C1.23284 6.51776 2.02734 6.76251 2.50865 7.02436C2.80324 7.1843 2.8873 7.32416 2.98401 7.7043L4.58044 13.8795H6.69611L9.93956 6.14134H7.83727Z" fill="#1B2073"/>
<path d="M0.533569 0H26.0242V2.66667H0.533569V0Z" fill="#1B2073"/>
<path d="M0.533569 17.3333H26.0242V20H0.533569V17.3333Z" fill="#F7B802"/>
</g>
<defs>
<clipPath id="clip0_72_2568">
<rect width="26.25" height="20" fill="white" transform="translate(0.533569)"/>
</clipPath>
</defs>
</svg>
