<svg width="33" height="20" viewBox="0 0 33 20" fill="none" xmlns="http://www.w3.org/2000/svg">
<path d="M7.71871 6.774C7.38275 6.54304 6.94435 6.42728 6.40351 6.42728H4.30967C4.14387 6.42728 4.05227 6.5102 4.03487 6.67588L3.18431 12.0151C3.17547 12.0675 3.18859 12.1155 3.22355 12.1591C3.25831 12.2028 3.30203 12.2245 3.35439 12.2245H4.34895C4.52339 12.2245 4.61927 12.1418 4.63687 11.9759L4.87239 10.5364C4.88099 10.4667 4.91167 10.41 4.96403 10.3663C5.01635 10.3227 5.08179 10.2942 5.16031 10.2811C5.23883 10.2682 5.31287 10.2616 5.38279 10.2616C5.45251 10.2616 5.53535 10.266 5.63147 10.2747C5.72735 10.2834 5.78847 10.2877 5.81467 10.2877C6.56491 10.2877 7.15379 10.0763 7.58135 9.653C8.00871 9.22996 8.22263 8.64332 8.22263 7.89284C8.22263 7.37812 8.05451 7.0052 7.71871 6.77388V6.774ZM6.63915 8.3772C6.59539 8.6826 6.48211 8.88316 6.29891 8.97916C6.11567 9.07528 5.85395 9.12312 5.51375 9.12312L5.08187 9.13616L5.30439 7.73588C5.32175 7.64 5.37843 7.592 5.47447 7.592H5.72319C6.07199 7.592 6.32515 7.64228 6.48219 7.74244C6.63915 7.84284 6.69151 8.05448 6.63915 8.3772Z" fill="#003087"/>
<path d="M29.8152 6.42719H28.8469C28.7507 6.42719 28.694 6.47519 28.6767 6.57123L27.8261 12.0152L27.813 12.0414C27.813 12.0852 27.8304 12.1265 27.8654 12.1657C27.9001 12.2049 27.9439 12.2246 27.9962 12.2246H28.8601C29.0255 12.2246 29.1172 12.1419 29.1349 11.976L29.9855 6.62359V6.61059C29.9854 6.48839 29.9285 6.42735 29.8152 6.42735V6.42719Z" fill="#009CDE"/>
<path d="M18.1159 8.5344C18.1159 8.49088 18.0984 8.44936 18.0637 8.4102C18.0287 8.37096 17.9894 8.3512 17.9459 8.3512H16.9383C16.8421 8.3512 16.7636 8.39504 16.7026 8.48204L15.3155 10.5236L14.7397 8.56064C14.6959 8.42116 14.6 8.3512 14.4518 8.3512H13.4702C13.4265 8.3512 13.3872 8.37088 13.3525 8.4102C13.3175 8.44936 13.3002 8.49096 13.3002 8.5344C13.3002 8.55196 13.3853 8.80924 13.5553 9.30652C13.7254 9.80396 13.9086 10.3405 14.1049 10.9164C14.3013 11.4921 14.4037 11.7976 14.4125 11.8322C13.697 12.8095 13.3395 13.3329 13.3395 13.4026C13.3395 13.5161 13.3961 13.5728 13.5096 13.5728H14.5172C14.6131 13.5728 14.6916 13.5292 14.7528 13.442L18.0899 8.62596C18.1072 8.60868 18.1159 8.57828 18.1159 8.53436V8.5344Z" fill="#003087"/>
<path d="M27.4991 8.35121H26.5045C26.3822 8.35121 26.3083 8.49521 26.2821 8.78317C26.055 8.43429 25.6409 8.25961 25.0388 8.25961C24.4107 8.25961 23.8762 8.49521 23.4357 8.96633C22.9951 9.43745 22.7749 9.99161 22.7749 10.6284C22.7749 11.1433 22.9254 11.5533 23.2263 11.8585C23.5273 12.1641 23.9307 12.3165 24.4369 12.3165C24.6899 12.3165 24.9473 12.2641 25.209 12.1595C25.4707 12.0548 25.6755 11.9153 25.8241 11.7407C25.8241 11.7495 25.8152 11.7886 25.798 11.8584C25.7803 11.9283 25.7717 11.9808 25.7717 12.0154C25.7717 12.1552 25.8283 12.2248 25.9419 12.2248H26.8449C27.0105 12.2248 27.1066 12.1421 27.1327 11.9762L27.6693 8.56057C27.6779 8.50817 27.6649 8.46029 27.63 8.41661C27.5949 8.37309 27.5514 8.35121 27.4991 8.35121ZM25.7913 10.9294C25.5689 11.1475 25.3005 11.2565 24.9865 11.2565C24.7334 11.2565 24.5285 11.1868 24.3714 11.0471C24.2143 10.9079 24.1358 10.7159 24.1358 10.4713C24.1358 10.1488 24.2449 9.87589 24.4631 9.65345C24.6809 9.43097 24.9516 9.31977 25.2744 9.31977C25.5185 9.31977 25.7213 9.39173 25.8829 9.53561C26.0441 9.67961 26.1251 9.87809 26.1251 10.1312C26.125 10.4452 26.0138 10.7114 25.7913 10.9294Z" fill="#009CDE"/>
<path d="M12.6328 8.35121H11.6382C11.5158 8.35121 11.4418 8.49521 11.4156 8.78317C11.1801 8.43429 10.7656 8.25961 10.1724 8.25961C9.54425 8.25961 9.00981 8.49521 8.56929 8.96633C8.12865 9.43745 7.90845 9.99161 7.90845 10.6284C7.90845 11.1433 8.05897 11.5533 8.35997 11.8585C8.66097 12.1641 9.06437 12.3165 9.57045 12.3165C9.81461 12.3165 10.0678 12.2641 10.3294 12.1595C10.5912 12.0548 10.8006 11.9153 10.9576 11.7407C10.9226 11.8453 10.9052 11.937 10.9052 12.0154C10.9052 12.1552 10.9619 12.2248 11.0754 12.2248H11.9783C12.144 12.2248 12.24 12.1421 12.2662 11.9762L12.8028 8.56057C12.8114 8.50817 12.7983 8.46029 12.7635 8.41661C12.7286 8.37309 12.685 8.35121 12.6328 8.35121ZM10.925 10.9359C10.7024 11.1499 10.4297 11.2565 10.1071 11.2565C9.85393 11.2565 9.65109 11.1868 9.49853 11.0471C9.34577 10.9079 9.26949 10.7159 9.26949 10.4713C9.26949 10.1488 9.37849 9.87589 9.59669 9.65345C9.81465 9.43097 10.0851 9.31973 10.408 9.31973C10.6522 9.31973 10.855 9.39173 11.0166 9.53561C11.1779 9.67961 11.2587 9.87809 11.2587 10.1312C11.2586 10.454 11.1474 10.7223 10.925 10.9359Z" fill="#003087"/>
<path d="M22.5851 6.774C22.2492 6.54304 21.8109 6.42728 21.27 6.42728H19.1892C19.0146 6.42728 18.9186 6.5102 18.9013 6.67588L18.0506 12.0151C18.0418 12.0675 18.0549 12.1155 18.0899 12.1591C18.1245 12.2028 18.1684 12.2245 18.2207 12.2245H19.2938C19.3984 12.2245 19.4682 12.1678 19.5032 12.0544L19.7388 10.5364C19.7474 10.4667 19.778 10.41 19.8304 10.3663C19.8828 10.3227 19.9481 10.2942 20.0267 10.2811C20.1052 10.2682 20.1792 10.2616 20.2492 10.2616C20.3189 10.2616 20.4017 10.266 20.4978 10.2747C20.5937 10.2834 20.655 10.2877 20.681 10.2877C21.4314 10.2877 22.0201 10.0763 22.4477 9.653C22.8752 9.22996 23.0889 8.64332 23.0889 7.89284C23.089 7.37812 22.9209 7.00516 22.5851 6.77388V6.774ZM21.2438 8.92676C21.0518 9.0576 20.7639 9.123 20.3801 9.123L19.9613 9.13612L20.1838 7.7358C20.201 7.63996 20.2578 7.59188 20.3538 7.59188H20.5893C20.7813 7.59188 20.9339 7.60064 21.0475 7.61804C21.1607 7.63556 21.27 7.69 21.3746 7.78156C21.4794 7.8732 21.5317 8.00632 21.5317 8.18072C21.5317 8.54728 21.4356 8.7958 21.2438 8.92676Z" fill="#009CDE"/>
</svg>
