<svg width="27" height="20" viewBox="0 0 27 20" fill="none" xmlns="http://www.w3.org/2000/svg">
<g clip-path="url(#clip0_72_2567)">
<path d="M6.10939 18.889C6.10939 18.537 6.34861 18.2479 6.7396 18.2479C7.11324 18.2479 7.36537 18.5246 7.36537 18.889C7.36537 19.2535 7.11324 19.5302 6.7396 19.5302C6.34861 19.5302 6.10939 19.241 6.10939 18.889ZM7.79129 18.889V17.8874H7.33955V18.1314C7.19627 17.951 6.97895 17.8379 6.6834 17.8379C6.10116 17.8379 5.64423 18.2781 5.64423 18.8895C5.64423 19.5009 6.10091 19.9411 6.6834 19.9411C6.97882 19.9411 7.19627 19.8279 7.33955 19.6477V19.8908H7.79079V18.889H7.79129ZM23.055 18.889C23.055 18.537 23.2942 18.2479 23.6853 18.2479C24.0594 18.2479 24.3111 18.5246 24.3111 18.889C24.3111 19.2535 24.0594 19.5302 23.6853 19.5302C23.2944 19.5302 23.055 19.241 23.055 18.889ZM24.7374 18.889V17.0833H24.2853V18.1314C24.142 17.951 23.9247 17.8379 23.6291 17.8379C23.0469 17.8379 22.59 18.2781 22.59 18.8895C22.59 19.5009 23.0466 19.9411 23.6291 19.9411C23.9247 19.9411 24.142 19.8279 24.2853 19.6477V19.8908H24.7374V18.889ZM13.398 18.2273C13.6891 18.2273 13.876 18.4032 13.9238 18.713H12.8459C12.8941 18.4238 13.0762 18.2273 13.3981 18.2273H13.398ZM13.4071 17.8368C12.7983 17.8368 12.3724 18.2639 12.3724 18.8884C12.3724 19.5252 12.8154 19.94 13.4373 19.94C13.7502 19.94 14.0368 19.8647 14.2889 19.6594L14.0675 19.3367C13.8934 19.4709 13.6716 19.5461 13.4632 19.5461C13.172 19.5461 12.907 19.4162 12.8418 19.0557H14.3844C14.3888 19.0015 14.3933 18.9469 14.3933 18.8883C14.3888 18.264 13.9883 17.8367 13.4068 17.8367L13.4071 17.8368ZM18.8609 18.8883C18.8609 18.5363 19.1001 18.2472 19.4911 18.2472C19.8647 18.2472 20.1169 18.5239 20.1169 18.8883C20.1169 19.2527 19.8647 19.5294 19.4911 19.5294C19.1001 19.5294 18.8607 19.2403 18.8607 18.8883H18.8609ZM20.5427 18.8883V17.8874H20.0912V18.1314C19.9474 17.951 19.7306 17.8379 19.435 17.8379C18.8528 17.8379 18.3958 18.2781 18.3958 18.8895C18.3958 19.5009 18.8525 19.9411 19.435 19.9411C19.7306 19.9411 19.9474 19.8279 20.0912 19.6477V19.8908H20.5428V18.889L20.5427 18.8883ZM16.3098 18.8883C16.3098 19.4958 16.7485 19.9399 17.4181 19.9399C17.731 19.9399 17.9394 19.8728 18.1648 19.7011L17.9479 19.3491C17.7783 19.4666 17.6002 19.5294 17.4036 19.5294C17.043 19.5252 16.7779 19.2738 16.7779 18.8883C16.7779 18.5028 17.043 18.2515 17.4036 18.2472C17.5997 18.2472 17.7778 18.31 17.9479 18.4275L18.1648 18.0755C17.939 17.9038 17.7306 17.8367 17.4181 17.8367C16.7485 17.8367 16.3098 18.2807 16.3098 18.8883ZM22.1334 17.8367C21.8728 17.8367 21.7031 17.9542 21.5857 18.1302V17.8874H21.1381V19.8897H21.5903V18.7673C21.5903 18.4359 21.738 18.2518 22.0333 18.2518C22.13 18.2504 22.226 18.2676 22.3158 18.3022L22.455 17.8918C22.3551 17.8538 22.2247 17.8371 22.1332 17.8371L22.1334 17.8367ZM10.0247 18.0466C9.80735 17.9085 9.50788 17.8371 9.17752 17.8371C8.65123 17.8371 8.31239 18.0802 8.31239 18.4781C8.31239 18.8046 8.56465 19.006 9.02918 19.0689L9.24258 19.0981C9.49028 19.1317 9.60724 19.1945 9.60724 19.3076C9.60724 19.4624 9.44269 19.5508 9.13373 19.5508C8.82084 19.5508 8.59503 19.4544 8.44276 19.3413L8.2305 19.6808C8.47821 19.8568 8.79109 19.9407 9.12993 19.9407C9.72989 19.9407 10.0776 19.6684 10.0776 19.2871C10.0776 18.9351 9.80393 18.751 9.35181 18.6882L9.13892 18.6584C8.94336 18.634 8.78666 18.5961 8.78666 18.4619C8.78666 18.3155 8.93438 18.2274 9.18221 18.2274C9.44738 18.2274 9.70407 18.3238 9.82988 18.399L10.0254 18.0471L10.0247 18.0466ZM15.8535 17.8375C15.5929 17.8375 15.4231 17.9549 15.3063 18.1309V17.8874H14.8586V19.8897H15.3104V18.7673C15.3104 18.4359 15.4581 18.2518 15.7534 18.2518C15.8501 18.2504 15.9461 18.2676 16.0359 18.3022L16.1751 17.8918C16.0751 17.8538 15.9448 17.8371 15.8532 17.8371L15.8535 17.8375ZM11.9986 17.8874H11.2599V17.2799H10.8032V17.8874H10.3819V18.2853H10.8032V19.1988C10.8032 19.6634 10.9903 19.9401 11.5247 19.9401C11.7208 19.9401 11.9466 19.8815 12.0898 19.7853L11.9593 19.4124C11.8245 19.4877 11.6768 19.5256 11.5594 19.5256C11.3336 19.5256 11.2599 19.3914 11.2599 19.1905V18.2857H11.9986V17.8874ZM5.24477 19.8902V18.6335C5.24477 18.1603 4.93188 17.8419 4.42748 17.8376C4.16231 17.8333 3.88879 17.9129 3.69728 18.1938C3.554 17.9718 3.3282 17.8376 3.01075 17.8376C2.78887 17.8376 2.57205 17.9004 2.40231 18.1349V17.8874H1.9502V19.8897H2.40586V18.7795C2.40586 18.4319 2.60584 18.2472 2.91468 18.2472C3.21466 18.2472 3.36642 18.4357 3.36642 18.7751V19.8895H3.8231V18.7792C3.8231 18.4316 4.03156 18.2469 4.33142 18.2469C4.63987 18.2469 4.78708 18.4354 4.78708 18.7748V19.8892L5.24477 19.8902Z" fill="#231F20"/>
<path d="M16.5334 14.1667H9.86682V1.66666H16.5335L16.5334 14.1667Z" fill="#FF5F00"/>
<path d="M10.5676 7.91667C10.5676 5.39159 11.76 3.14224 13.6167 1.69266C12.2113 0.593783 10.473 -0.00261366 8.68314 8.61048e-06C4.27417 8.61048e-06 0.700195 3.54436 0.700195 7.91667C0.700195 12.289 4.27417 15.8333 8.68314 15.8333C10.473 15.836 12.2114 15.2396 13.6169 14.1407C11.7603 12.6914 10.5676 10.4419 10.5676 7.91667Z" fill="#EB001B"/>
<path d="M26.1169 7.91667C26.1169 12.289 22.5431 15.8333 18.1343 15.8333C16.3444 15.8359 14.6059 15.2395 13.2002 14.1407C15.0574 12.6911 16.2497 10.4419 16.2497 7.91667C16.2497 5.39146 15.0574 3.14224 13.2002 1.69266C14.6058 0.593816 16.3443 -0.0025677 18.1342 8.31014e-06C22.5429 8.31014e-06 26.1167 3.54436 26.1167 7.91667" fill="#F79E1B"/>
</g>
<defs>
<clipPath id="clip0_72_2567">
<rect width="25.8333" height="20" fill="white" transform="translate(0.700195)"/>
</clipPath>
</defs>
</svg>
