<svg width="48" height="48" viewBox="0 0 48 48" fill="none" xmlns="http://www.w3.org/2000/svg">
<path d="M19 33L33 24L19 15V33ZM24 44C21.2333 44 18.6333 43.4747 16.2 42.424C13.7667 41.3747 11.65 39.95 9.85 38.15C8.05 36.35 6.62533 34.2333 5.576 31.8C4.52533 29.3667 4 26.7667 4 24C4 21.2333 4.52533 18.6333 5.576 16.2C6.62533 13.7667 8.05 11.65 9.85 9.85C11.65 8.05 13.7667 6.62467 16.2 5.574C18.6333 4.52467 21.2333 4 24 4C26.7667 4 29.3667 4.52467 31.8 5.574C34.2333 6.62467 36.35 8.05 38.15 9.85C39.95 11.65 41.3747 13.7667 42.424 16.2C43.4747 18.6333 44 21.2333 44 24C44 26.7667 43.4747 29.3667 42.424 31.8C41.3747 34.2333 39.95 36.35 38.15 38.15C36.35 39.95 34.2333 41.3747 31.8 42.424C29.3667 43.4747 26.7667 44 24 44ZM24 40C28.4667 40 32.25 38.45 35.35 35.35C38.45 32.25 40 28.4667 40 24C40 19.5333 38.45 15.75 35.35 12.65C32.25 9.55 28.4667 8 24 8C19.5333 8 15.75 9.55 12.65 12.65C9.55 15.75 8 19.5333 8 24C8 28.4667 9.55 32.25 12.65 35.35C15.75 38.45 19.5333 40 24 40Z" fill="#D9D9D9"/>
</svg>
