<svg width="17" height="16" viewBox="0 0 17 16" fill="none" xmlns="http://www.w3.org/2000/svg">
<path d="M13.5666 6V4C13.5666 3.64638 13.4261 3.30724 13.176 3.05719C12.926 2.80714 12.5869 2.66666 12.2332 2.66666H5.56656C5.21294 2.66666 4.8738 2.80714 4.62375 3.05719C4.37371 3.30724 4.23323 3.64638 4.23323 4V6" stroke="#555555" stroke-width="1.5" stroke-linecap="round" stroke-linejoin="round"/>
<path d="M2.8999 7.33333V10.6667C2.8999 11.0203 3.04038 11.3594 3.29043 11.6095C3.54048 11.8595 3.87961 12 4.23324 12H13.5666C13.9202 12 14.2593 11.8595 14.5094 11.6095C14.7594 11.3594 14.8999 11.0203 14.8999 10.6667V7.33333C14.8999 6.97971 14.7594 6.64057 14.5094 6.39052C14.2593 6.14048 13.9202 6 13.5666 6C13.2129 6 12.8738 6.14048 12.6238 6.39052C12.3737 6.64057 12.2332 6.97971 12.2332 7.33333V8.66667H5.56657V7.33333C5.56657 6.97971 5.42609 6.64057 5.17604 6.39052C4.926 6.14048 4.58686 6 4.23324 6C3.87961 6 3.54048 6.14048 3.29043 6.39052C3.04038 6.64057 2.8999 6.97971 2.8999 7.33333V7.33333Z" stroke="#555555" stroke-width="1.5" stroke-linecap="round" stroke-linejoin="round"/>
<path d="M4.23323 12V13.3333" stroke="#555555" stroke-width="1.5" stroke-linecap="round" stroke-linejoin="round"/>
<path d="M13.5666 12V13.3333" stroke="#555555" stroke-width="1.5" stroke-linecap="round" stroke-linejoin="round"/>
</svg>
