<svg width="20" height="21" viewBox="0 0 20 21" fill="none" xmlns="http://www.w3.org/2000/svg">
<path d="M9.16663 8.43213H10.8333V10.0988H9.16663V8.43213ZM12.5 8.43213H14.1666V10.0988H12.5V8.43213ZM15.8333 8.43213H17.5V10.0988H15.8333V8.43213Z" fill="#555555"/>
<path d="M16.6667 13.8488C15.625 13.8488 14.625 13.6821 13.6917 13.3738C13.6083 13.3488 13.5167 13.3321 13.4333 13.3321C13.2167 13.3321 13.0083 13.4155 12.8417 13.5738L11.0083 15.4071C8.64492 14.2048 6.72259 12.2854 5.51667 9.9238L7.35 8.08213C7.58333 7.85713 7.65 7.53213 7.55833 7.24046C7.24221 6.28051 7.08185 5.27613 7.08333 4.26546C7.08333 3.80713 6.70833 3.43213 6.25 3.43213H3.33333C2.875 3.43213 2.5 3.80713 2.5 4.26546C2.5 12.0905 8.84167 18.4321 16.6667 18.4321C17.125 18.4321 17.5 18.0571 17.5 17.5988V14.6821C17.5 14.2238 17.125 13.8488 16.6667 13.8488ZM4.19167 5.0988H5.44167C5.5 5.83213 5.625 6.55713 5.825 7.25713L4.825 8.26546C4.48333 7.25713 4.26667 6.1988 4.19167 5.0988ZM15.8333 16.7405C14.7333 16.6655 13.6667 16.4488 12.6667 16.1071L13.6667 15.1071C14.375 15.3071 15.1 15.4321 15.8333 15.4821V16.7405Z" fill="#070606"/>
</svg>
