<svg width="14" height="14" viewBox="0 0 14 14" fill="none" xmlns="http://www.w3.org/2000/svg">
<path d="M8.23675 2.33317L9.30425 3.49984H11.6667V10.4998H2.33341V3.49984H4.69591L5.76341 2.33317H8.23675ZM8.75008 1.1665H5.25008L4.18258 2.33317H2.33341C1.69175 2.33317 1.16675 2.85817 1.16675 3.49984V10.4998C1.16675 11.1415 1.69175 11.6665 2.33341 11.6665H11.6667C12.3084 11.6665 12.8334 11.1415 12.8334 10.4998V3.49984C12.8334 2.85817 12.3084 2.33317 11.6667 2.33317H9.81758L8.75008 1.1665ZM7.00008 5.24984C7.96258 5.24984 8.75008 6.03734 8.75008 6.99984C8.75008 7.96234 7.96258 8.74984 7.00008 8.74984C6.03758 8.74984 5.25008 7.96234 5.25008 6.99984C5.25008 6.03734 6.03758 5.24984 7.00008 5.24984ZM7.00008 4.08317C5.39008 4.08317 4.08341 5.38984 4.08341 6.99984C4.08341 8.60984 5.39008 9.9165 7.00008 9.9165C8.61008 9.9165 9.91675 8.60984 9.91675 6.99984C9.91675 5.38984 8.61008 4.08317 7.00008 4.08317Z" fill="white"/>
</svg>
