<svg width="20" height="21" viewBox="0 0 20 21" fill="none" xmlns="http://www.w3.org/2000/svg">
<path d="M9.55706 16.75H6.46934C5.92548 16.75 5.44302 16.7333 5.0132 16.675C2.70618 16.4333 2.08337 15.4 2.08337 12.5833V8.41666C2.08337 5.59999 2.70618 4.56666 5.0132 4.32499C5.44302 4.26666 5.92548 4.24999 6.46934 4.24999H9.50443M13.0658 4.24999H14.3641C14.9079 4.24999 15.3904 4.26666 15.8202 4.32499C18.1272 4.56666 18.75 5.59999 18.75 8.41666V12.5833C18.75 15.4 18.1272 16.4333 15.8202 16.675C15.3904 16.7333 14.9079 16.75 14.3641 16.75H13.0658M13.0483 2.16666V18.8333" stroke="#070606" stroke-width="1.5" stroke-linecap="round" stroke-linejoin="round"/>
<path d="M9.24579 10.5H9.25245M5.91162 10.5H5.91995" stroke="#555555" stroke-width="2" stroke-linecap="round" stroke-linejoin="round"/>
</svg>
