<svg width="20" height="20" viewBox="0 0 20 20" fill="none" xmlns="http://www.w3.org/2000/svg">
<path d="M12.4547 12.9267L12.7677 13.2396L16.0775 16.5494L16.5487 16.0782L13.2389 12.7684L12.9259 12.4554L13.1987 12.1067C14.0415 11.0294 14.4996 9.70102 14.5 8.33317L12.4547 12.9267ZM12.4547 12.9267L12.1061 13.1993M12.4547 12.9267L12.1061 13.1993M12.1061 13.1993C11.0289 14.0417 9.7008 14.4995 8.33329 14.4998L12.1061 13.1993ZM8.33319 14.4998C4.93355 14.4998 2.16663 11.7328 2.16663 8.33317C2.16663 4.93348 4.9336 2.1665 8.33329 2.1665C11.7329 2.1665 14.4999 4.93341 14.5 8.33305L8.33319 14.4998ZM13.8333 8.33317C13.8333 5.29953 11.3669 2.83317 8.33329 2.83317C5.29965 2.83317 2.83329 5.29953 2.83329 8.33317C2.83329 11.3668 5.29965 13.8332 8.33329 13.8332C11.3669 13.8332 13.8333 11.3668 13.8333 8.33317Z" fill="#555555" stroke="#555555"/>
</svg>
