<svg width="16" height="16" viewBox="0 0 16 16" fill="none" xmlns="http://www.w3.org/2000/svg">
<path d="M8 3C8.98891 3 9.95561 3.29324 10.7779 3.84265C11.6001 4.39206 12.241 5.17295 12.6194 6.08658C12.9978 7.00021 13.0969 8.00555 12.9039 8.97545C12.711 9.94536 12.2348 10.8363 11.5355 11.5355C10.8363 12.2348 9.94536 12.711 8.97545 12.9039C8.00555 13.0969 7.00021 12.9978 6.08658 12.6194C5.17295 12.241 4.39206 11.6001 3.84265 10.7779C3.29324 9.95561 3 8.98891 3 8C3 7.86739 2.94732 7.74021 2.85355 7.64645C2.75979 7.55268 2.63261 7.5 2.5 7.5C2.36739 7.5 2.24021 7.55268 2.14645 7.64645C2.05268 7.74021 2 7.86739 2 8C1.99997 9.37381 2.47139 10.706 3.33549 11.774C4.19959 12.8421 5.40403 13.5812 6.74757 13.868C8.09112 14.1547 9.49238 13.9717 10.7172 13.3496C11.9421 12.7274 12.9163 11.7038 13.4772 10.4497C14.0381 9.19559 14.1516 7.787 13.7988 6.45927C13.446 5.13154 12.6482 3.96509 11.5388 3.15483C10.4294 2.34456 9.07548 1.93955 7.70336 2.00747C6.33123 2.07539 5.02397 2.61213 4 3.528V2.5C4 2.36739 3.94732 2.24021 3.85355 2.14645C3.75979 2.05268 3.63261 2 3.5 2C3.36739 2 3.24021 2.05268 3.14645 2.14645C3.05268 2.24021 3 2.36739 3 2.5V5.5C3 5.63261 3.05268 5.75979 3.14645 5.85355C3.24021 5.94732 3.36739 6 3.5 6H5.5C5.63261 6 5.75979 5.94732 5.85355 5.85355C5.94732 5.75979 6 5.63261 6 5.5C6 5.36739 5.94732 5.24021 5.85355 5.14645C5.75979 5.05268 5.63261 5 5.5 5H4C4.4653 4.37856 5.06913 3.87421 5.76351 3.52702C6.45788 3.17983 7.22366 2.99938 8 3ZM8.001 5.5C8.001 5.36739 7.94832 5.24021 7.85455 5.14645C7.76079 5.05268 7.63361 5 7.501 5C7.36839 5 7.24121 5.05268 7.14745 5.14645C7.05368 5.24021 7.001 5.36739 7.001 5.5V8.5C7.001 8.63261 7.05368 8.75979 7.14745 8.85355C7.24121 8.94732 7.36839 9 7.501 9H9.501C9.63361 9 9.76079 8.94732 9.85455 8.85355C9.94832 8.75979 10.001 8.63261 10.001 8.5C10.001 8.36739 9.94832 8.24021 9.85455 8.14645C9.76079 8.05268 9.63361 8 9.501 8H8.001V5.5Z" fill="black"/>
</svg>
