<svg width="24" height="24" viewBox="0 0 24 24" fill="none" xmlns="http://www.w3.org/2000/svg">
<path d="M6.75 20.25H20.25" stroke="#070606" stroke-width="1.5" stroke-linecap="round" stroke-linejoin="round"/>
<path d="M2.51258 7.5H4.12508L6.00008 9.75H9.00008L7.8282 6.23438C7.79114 6.12172 7.78132 6.00188 7.79956 5.8847C7.81779 5.76751 7.86355 5.65632 7.93309 5.56025C8.00262 5.46418 8.09395 5.38597 8.19957 5.33204C8.3052 5.2781 8.42211 5.24999 8.5407 5.25H10.1251L14.2501 9.75H19.5001C20.2957 9.75 21.0588 10.0661 21.6214 10.6287C22.184 11.1913 22.5001 11.9544 22.5001 12.75V15H5.98133C5.33701 14.999 4.71014 14.7906 4.19347 14.4057C3.67681 14.0207 3.29781 13.4796 3.11258 12.8625L1.7907 8.46563C1.757 8.35335 1.75008 8.23473 1.77051 8.11929C1.79094 8.00386 1.83814 7.89482 1.90833 7.80093C1.97853 7.70703 2.06975 7.6309 2.17469 7.57864C2.27962 7.52638 2.39535 7.49945 2.51258 7.5V7.5Z" stroke="#070606" stroke-width="1.5" stroke-linecap="round" stroke-linejoin="round"/>
</svg>
