<svg width="20" height="20" viewBox="0 0 20 20" fill="none" xmlns="http://www.w3.org/2000/svg">
<g clip-path="url(#clip0_1385_3456)">
<path d="M10 6.875V5" stroke="#666666" stroke-width="1.3" stroke-linecap="round" stroke-linejoin="round"/>
<path d="M10 5C13.6094 3.75 10 0.625 10 0.625C10 0.625 6.25004 3.75 10 5Z" stroke="#777777" stroke-width="1.3" stroke-linecap="round" stroke-linejoin="round"/>
<path d="M12.6562 9.84375C12.6562 10.5482 12.3764 11.2239 11.8783 11.722C11.3801 12.2201 10.7045 12.5 10 12.5C9.29552 12.5 8.61989 12.2201 8.12175 11.722C7.6236 11.2239 7.34375 10.5482 7.34375 9.84375" stroke="#777777" stroke-width="1.3" stroke-linecap="round" stroke-linejoin="round"/>
<path d="M7.34377 9.84377C7.34391 10.5389 7.07158 11.2063 6.5852 11.7029C6.09883 12.1995 5.43716 12.4857 4.7422 12.5C3.25002 12.5313 2.03127 11.2813 2.03127 9.78908V8.75002C2.03023 8.5035 2.07803 8.25922 2.17189 8.03126C2.26575 7.80331 2.40382 7.5962 2.57814 7.42189C2.75245 7.24757 2.95956 7.1095 3.18751 7.01564C3.41547 6.92178 3.65975 6.87398 3.90627 6.87502H16.0938C16.3403 6.87398 16.5846 6.92178 16.8125 7.01564C17.0405 7.1095 17.2476 7.24757 17.4219 7.42189C17.5962 7.5962 17.7343 7.80331 17.8281 8.03126C17.922 8.25922 17.9698 8.5035 17.9688 8.75002V9.78908C17.9688 11.2813 16.75 12.5313 15.2578 12.5C14.5629 12.4857 13.9012 12.1995 13.4148 11.7029C12.9285 11.2063 12.6561 10.5389 12.6563 9.84377" stroke="#777777" stroke-width="1.3" stroke-linecap="round" stroke-linejoin="round"/>
<path d="M16.875 11.9766V16.25C16.875 16.4158 16.8092 16.5747 16.6919 16.6919C16.5747 16.8092 16.4158 16.875 16.25 16.875H3.75C3.58424 16.875 3.42527 16.8092 3.30806 16.6919C3.19085 16.5747 3.125 16.4158 3.125 16.25V11.9766" stroke="#777777" stroke-width="1.3" stroke-linecap="round" stroke-linejoin="round"/>
</g>
<defs>
<clipPath id="clip0_1385_3456">
<rect width="20" height="20" fill="white"/>
</clipPath>
</defs>
</svg>
